<?xml version="1.0" standalone="no"?>
<!DOCTYPE svg PUBLIC "-//W3C//DTD SVG 20010904//EN"
 "http://www.w3.org/TR/2001/REC-SVG-20010904/DTD/svg10.dtd">
<svg version="1.0" xmlns="http://www.w3.org/2000/svg"
 width="450.000000pt" height="450.000000pt" viewBox="0 0 450.000000 450.000000"
 preserveAspectRatio="xMidYMid meet">
<metadata>
Created by potrace 1.14, written by Peter Selinger 2001-2017
</metadata>
<g transform="translate(0.000000,450.000000) scale(0.100000,-0.100000)"
fill="#000000" stroke="none">
<path d="M2117 4094 c-1 -1 -85 -5 -187 -8 -263 -10 -335 -16 -540 -41 -253
-33 -465 -106 -605 -210 -139 -103 -248 -293 -300 -520 -4 -16 -9 -39 -11 -50
-13 -56 -31 -174 -39 -250 -3 -27 -8 -72 -11 -99 -3 -27 -7 -81 -10 -120 -2
-39 -6 -120 -10 -181 -15 -276 -5 -785 20 -1035 35 -335 71 -490 157 -666 76
-153 208 -283 345 -340 22 -9 53 -22 69 -29 25 -12 122 -42 160 -51 184 -42
359 -64 655 -81 165 -10 765 -9 910 0 153 11 230 17 270 22 19 3 60 7 90 10
30 3 62 8 70 10 8 2 35 7 59 10 65 9 219 51 294 79 86 32 175 82 232 131 27
22 51 42 54 45 22 18 85 107 115 162 66 119 106 248 141 447 16 95 20 124 31
241 3 36 7 83 9 105 24 253 24 884 0 1140 -2 22 -6 69 -9 105 -3 36 -8 81 -11
100 -2 19 -7 55 -10 80 -21 161 -61 320 -106 417 -10 24 -19 45 -19 49 0 3
-19 37 -42 76 -96 161 -244 268 -475 339 -91 29 -265 62 -383 74 -30 3 -77 8
-105 10 -161 17 -795 40 -808 29z"/>
</g>
</svg>
